<svg width="36" height="45" viewBox="0 0 36 45" fill="none" xmlns="http://www.w3.org/2000/svg">
<path d="M18 0C13.2277 0.00535974 8.65249 1.9035 5.278 5.278C1.9035 8.65249 0.00535974 13.2277 0 18C0 31.7205 16.8375 44.3235 17.5545 44.853C17.6835 44.9482 17.8396 44.9996 18 44.9996C18.1604 44.9996 18.3165 44.9482 18.4455 44.853C19.1625 44.3235 36 31.7205 36 18C35.9946 13.2277 34.0965 8.65249 30.722 5.278C27.3475 1.9035 22.7723 0.00535974 18 0ZM18 31.5C15.33 31.5 12.7199 30.7082 10.4998 29.2248C8.27974 27.7414 6.54941 25.633 5.52763 23.1662C4.50584 20.6994 4.2385 17.985 4.7594 15.3663C5.2803 12.7475 6.56605 10.3421 8.45406 8.45406C10.3421 6.56605 12.7475 5.2803 15.3663 4.7594C17.985 4.2385 20.6994 4.50584 23.1662 5.52763C25.633 6.54941 27.7414 8.27974 29.2248 10.4998C30.7082 12.7199 31.5 15.33 31.5 18C31.496 21.5792 30.0724 25.0107 27.5416 27.5416C25.0107 30.0724 21.5792 31.496 18 31.5ZM25.965 12.75H10.0425L11.3325 10.1625C11.3932 10.0375 11.4882 9.93241 11.6064 9.85937C11.7246 9.78634 11.8611 9.7484 12 9.75H24C24.1389 9.7484 24.2754 9.78634 24.3936 9.85937C24.5118 9.93241 24.6068 10.0375 24.6675 10.1625L25.965 12.75ZM9.75 14.25H26.25V14.91C26.2592 15.4283 26.0942 15.9347 25.7815 16.3481C25.4687 16.7615 25.0263 17.0579 24.525 17.19C24.1702 17.2743 23.8003 17.2706 23.4473 17.179C23.0943 17.0875 22.7691 16.9111 22.5 16.665C22.0911 17.0412 21.5557 17.25 21 17.25C20.4443 17.25 19.9089 17.0412 19.5 16.665C19.0911 17.0412 18.5557 17.25 18 17.25C17.4443 17.25 16.9089 17.0412 16.5 16.665C16.0911 17.0412 15.5557 17.25 15 17.25C14.4443 17.25 13.9089 17.0412 13.5 16.665C13.2309 16.9111 12.9057 17.0875 12.5527 17.179C12.1997 17.2706 11.8298 17.2743 11.475 17.19C10.9737 17.0579 10.5313 16.7615 10.2185 16.3481C9.90577 15.9347 9.74079 15.4283 9.75 14.91V14.25ZM24 18.75C24.2519 18.751 24.5033 18.7259 24.75 18.675V25.5C24.7494 25.6987 24.6702 25.8891 24.5297 26.0297C24.3892 26.1702 24.1987 26.2494 24 26.25H20.25V21C20.25 20.8011 20.171 20.6103 20.0303 20.4697C19.8897 20.329 19.6989 20.25 19.5 20.25H16.5C16.3011 20.25 16.1103 20.329 15.9697 20.4697C15.829 20.6103 15.75 20.8011 15.75 21V26.25H12C11.8013 26.2494 11.6108 26.1702 11.4703 26.0297C11.3298 25.8891 11.2506 25.6987 11.25 25.5V18.675C11.4967 18.7259 11.7481 18.751 12 18.75C12.5162 18.7476 13.0265 18.6404 13.5 18.435C13.9728 18.6427 14.4836 18.75 15 18.75C15.5164 18.75 16.0272 18.6427 16.5 18.435C16.9728 18.6427 17.4836 18.75 18 18.75C18.5164 18.75 19.0272 18.6427 19.5 18.435C19.9728 18.6427 20.4836 18.75 21 18.75C21.5164 18.75 22.0272 18.6427 22.5 18.435C22.9735 18.6404 23.4838 18.7476 24 18.75Z" fill="#00998E"/>
</svg>
