<svg width="45" height="38" viewBox="0 0 45 38" fill="none" xmlns="http://www.w3.org/2000/svg">
<path d="M24.0375 27H4.5V19.6965L8.92875 14.5913C9.15254 14.3368 9.42891 14.134 9.73876 13.9968C10.0486 13.8596 10.3845 13.7913 10.7234 13.7967C11.0622 13.802 11.3958 13.8809 11.7012 14.0278C12.0065 14.1747 12.2764 14.3861 12.492 14.6475L16.305 19.344L23.5275 10.599C23.7478 10.3383 24.0222 10.1288 24.3317 9.98503C24.6412 9.84126 24.9784 9.76671 25.3197 9.76657C25.6609 9.76643 25.9981 9.84069 26.3078 9.9842C26.6174 10.1277 26.892 10.337 27.1125 10.5975L32.319 16.9005C30.0599 17.5139 28.0483 18.8163 26.5641 20.6265C25.0799 22.4366 24.1962 24.6645 24.0375 27ZM16.6425 5.6385C15.8469 5.6385 15.0838 5.95457 14.5212 6.51718C13.9586 7.07979 13.6425 7.84285 13.6425 8.6385C13.6425 9.43415 13.9586 10.1972 14.5212 10.7598C15.0838 11.3224 15.8469 11.6385 16.6425 11.6385C17.4382 11.6385 18.2012 11.3224 18.7638 10.7598C19.3264 10.1972 19.6425 9.43415 19.6425 8.6385C19.6425 7.84285 19.3264 7.07979 18.7638 6.51718C18.2012 5.95457 17.4382 5.6385 16.6425 5.6385ZM24.0375 28.5H3.75C3.55109 28.5 3.36032 28.421 3.21967 28.2803C3.07902 28.1397 3 27.9489 3 27.75V3.75C3 3.55109 3.07902 3.36032 3.21967 3.21967C3.36032 3.07902 3.55109 3 3.75 3H35.25C35.4489 3 35.6397 3.07902 35.7803 3.21967C35.921 3.36032 36 3.55109 36 3.75V16.5375C37.0237 16.6048 38.0332 16.813 39 17.1563V2.25C38.9994 1.65345 38.7622 1.0815 38.3403 0.659668C37.9185 0.23784 37.3466 0.000595661 36.75 0H2.25C1.65345 0.000595661 1.0815 0.23784 0.659668 0.659668C0.23784 1.0815 0.000595661 1.65345 0 2.25V29.25C0.000595661 29.8466 0.23784 30.4185 0.659668 30.8403C1.0815 31.2622 1.65345 31.4994 2.25 31.5H24.6562C24.3133 30.5332 24.1046 29.5237 24.0375 28.5ZM35.25 18C33.3216 18 31.4366 18.5718 29.8332 19.6432C28.2298 20.7145 26.9801 22.2373 26.2422 24.0188C25.5042 25.8004 25.3111 27.7608 25.6873 29.6521C26.0635 31.5434 26.9921 33.2807 28.3557 34.6443C29.7193 36.0079 31.4566 36.9365 33.3479 37.3127C35.2392 37.6889 37.1996 37.4958 38.9812 36.7578C40.7627 36.0199 42.2855 34.7702 43.3568 33.1668C44.4282 31.5634 45 29.6784 45 27.75C44.997 25.1651 43.9688 22.6868 42.141 20.859C40.3132 19.0312 37.8349 18.003 35.25 18ZM39 27.75H37.5V33.75C37.5 33.9489 37.421 34.1397 37.2803 34.2803C37.1397 34.421 36.9489 34.5 36.75 34.5H33.75C33.5511 34.5 33.3603 34.421 33.2197 34.2803C33.079 34.1397 33 33.9489 33 33.75V27.732L31.509 27.75C31.3707 27.7511 31.2347 27.7141 31.1161 27.6429C30.9975 27.5717 30.9008 27.4691 30.8367 27.3465C30.7727 27.2239 30.7437 27.086 30.753 26.948C30.7623 26.8099 30.8096 26.6772 30.8895 26.5643L34.6395 21.3143C34.7124 21.2221 34.8052 21.1477 34.9109 21.0966C35.0166 21.0454 35.1325 21.0188 35.25 21.0188C35.3675 21.0188 35.4834 21.0454 35.5891 21.0966C35.6948 21.1477 35.7876 21.2221 35.8605 21.3143L39.6105 26.5643C39.6886 26.6768 39.7346 26.8086 39.7436 26.9453C39.7526 27.0821 39.7242 27.2187 39.6615 27.3405C39.5987 27.4624 39.504 27.5649 39.3875 27.637C39.271 27.7091 39.137 27.7482 39 27.75Z" fill="#00998E"/>
</svg>
