<svg width="48" height="48" viewBox="0 0 48 48" fill="none" xmlns="http://www.w3.org/2000/svg">
<path d="M31.223 33.4812C31.1662 33.3065 31.0616 33.1512 30.9212 33.0328C30.7807 32.9144 30.6099 32.8377 30.4282 32.8113L26.5963 32.2545L24.8827 28.7823C24.8014 28.6176 24.6757 28.4789 24.5197 28.382C24.3637 28.285 24.1837 28.2336 24 28.2336C23.8163 28.2336 23.6363 28.285 23.4803 28.382C23.3243 28.4789 23.1986 28.6176 23.1173 28.7823L21.4037 32.2545L17.5718 32.8113C17.3901 32.8377 17.2193 32.9145 17.0789 33.0328C16.9384 33.1512 16.8339 33.3065 16.7771 33.4812C16.7204 33.6559 16.7137 33.843 16.7577 34.0213C16.8017 34.1997 16.8947 34.3621 17.0262 34.4903L19.799 37.1931L19.1444 41.0094C19.1133 41.1905 19.1335 41.3766 19.2027 41.5468C19.2719 41.7169 19.3873 41.8644 19.5359 41.9723C19.6845 42.0803 19.8604 42.1445 20.0436 42.1578C20.2268 42.171 20.4101 42.1327 20.5727 42.0472L24 40.2453L27.4274 42.0472C27.59 42.1327 27.7732 42.171 27.9564 42.1578C28.1397 42.1445 28.3155 42.0803 28.4641 41.9723C28.6127 41.8643 28.7281 41.7169 28.7973 41.5467C28.8665 41.3766 28.8867 41.1905 28.8557 41.0094L28.2011 37.1931L30.9739 34.4903C31.1054 34.3621 31.1985 34.1997 31.2425 34.0213C31.2865 33.843 31.2797 33.6559 31.223 33.4812ZM15.3036 33.4814C15.2467 33.3067 15.1422 33.1514 15.0017 33.033C14.8612 32.9146 14.6905 32.8378 14.5087 32.8114L10.6768 32.2546L8.96325 28.7824C8.88194 28.6177 8.75618 28.479 8.60018 28.3821C8.44418 28.2851 8.26417 28.2337 8.0805 28.2337C7.89683 28.2337 7.71682 28.2851 7.56082 28.3821C7.40482 28.479 7.27906 28.6177 7.19775 28.7824L5.48419 32.2546L1.65234 32.8114C1.47057 32.8378 1.29982 32.9146 1.15938 33.0329C1.01895 33.1513 0.914422 33.3066 0.857625 33.4813C0.800891 33.656 0.794152 33.8431 0.838171 34.0214C0.882189 34.1997 0.975209 34.3622 1.10672 34.4904L3.87947 37.1932L3.225 41.0096C3.19395 41.1907 3.21416 41.3768 3.28337 41.5469C3.35257 41.7171 3.468 41.8645 3.6166 41.9724C3.7652 42.0804 3.94104 42.1446 4.12425 42.1579C4.30745 42.1711 4.4907 42.1328 4.65328 42.0473L8.08059 40.2455L11.508 42.0473C11.6706 42.1329 11.8538 42.1712 12.037 42.158C12.2203 42.1447 12.3961 42.0805 12.5447 41.9724C12.6933 41.8645 12.8087 41.7171 12.8779 41.5469C12.9471 41.3768 12.9673 41.1907 12.9363 41.0096L12.2817 37.1932L15.0545 34.4905C15.186 34.3623 15.279 34.1999 15.3231 34.0215C15.3671 33.8432 15.3603 33.6561 15.3036 33.4814ZM47.1427 33.4812C47.0858 33.3066 46.9812 33.1513 46.8407 33.0329C46.7003 32.9146 46.5295 32.8378 46.3478 32.8114L42.5159 32.2546L40.8023 28.7824C40.721 28.6177 40.5953 28.479 40.4393 28.3821C40.2833 28.2851 40.1033 28.2337 39.9196 28.2337C39.7359 28.2337 39.5559 28.2851 39.3999 28.3821C39.2439 28.479 39.1182 28.6177 39.0368 28.7824L37.3233 32.2546L33.4914 32.8114C33.3097 32.8378 33.1389 32.9146 32.9985 33.0329C32.858 33.1513 32.7535 33.3066 32.6967 33.4813C32.64 33.656 32.6332 33.8431 32.6773 34.0214C32.7213 34.1997 32.8143 34.3622 32.9458 34.4904L35.7186 37.1932L35.064 41.0095C35.0329 41.1906 35.0531 41.3767 35.1223 41.5469C35.1915 41.717 35.3069 41.8644 35.4555 41.9724C35.6041 42.0804 35.78 42.1446 35.9632 42.1579C36.1464 42.1711 36.3297 42.1328 36.4923 42.0472L39.9197 40.2454L43.347 42.0472C43.5096 42.1327 43.6928 42.171 43.876 42.1578C44.0592 42.1445 44.2351 42.0803 44.3837 41.9723C44.5323 41.8644 44.6477 41.717 44.7169 41.5468C44.7861 41.3767 44.8063 41.1906 44.7753 41.0095L44.1208 37.1932L46.8936 34.4903C47.0251 34.3621 47.1181 34.1997 47.1622 34.0213C47.2062 33.843 47.1994 33.6559 47.1427 33.4812ZM41.2395 5.83594H6.7605C3.03281 5.83594 0 8.86866 0 12.5964V17.1582C0 20.6387 2.64338 23.5132 6.02822 23.8792L7.48997 25.8267C7.97184 26.4687 8.70844 26.8441 9.51094 26.8566L9.55228 26.8568C10.3391 26.8568 11.07 26.5061 11.5629 25.8904L13.1418 23.9186H41.2395C44.9673 23.9186 48 20.8859 48 17.1581V12.5963C48 8.86866 44.9672 5.83594 41.2395 5.83594ZM20.9842 19.0535H8.184C7.40737 19.0535 6.77775 18.4238 6.77775 17.6472C6.77775 16.8706 7.40737 16.241 8.184 16.241H20.9842C21.7609 16.241 22.3905 16.8706 22.3905 17.6472C22.3905 18.4238 21.7609 19.0535 20.9842 19.0535ZM39.816 13.3992H8.184C7.40737 13.3992 6.77775 12.7696 6.77775 11.993C6.77775 11.2163 7.40737 10.5867 8.184 10.5867H39.816C40.5926 10.5867 41.2223 11.2163 41.2223 11.993C41.2223 12.7696 40.5926 13.3992 39.816 13.3992Z" fill="#00998E"/>
</svg>
